# xmcd CD database file
#
# Track frame offsets:
#	150
#	20525
#	44615
#	67212
#	84605
#	100002
#	121175
#	134925
#	160420
#	182035
#	220680
#	245560
#
# Disc length: 3479 seconds
#
# Revision: 3
# Processed by: cddbd v1.5.2PL0 Copyright (c) Steve Scherf et al.
# Submitted via: CDex 1.51
#
DISCID=b20d950c
DTITLE=Good News - Love It Live Vol.2
DYEAR=1996
DGENRE=Rock
TTITLE0=Jump
TTITLE1=Walk This Way
TTITLE2=When The Night Comes
TTITLE3=Notbush
TTITLE4=Why Did You Do It
TTITLE5=Sexy
TTITLE6=Bobby Brown
TTITLE7=Money
TTITLE8=Johnny B.
TTITLE9=With A Little Help From My Friends
TTITLE10=Don´t Let The Sun Go Down On Me
TTITLE11=Now That You´re Here
EXTD=YEAR: 1996
EXTT0=
EXTT1=
EXTT2=
EXTT3=
EXTT4=
EXTT5=
EXTT6=
EXTT7=
EXTT8=
EXTT9=
EXTT10=
EXTT11=
PLAYORDER=
